<mxfile host="app.diagrams.net" agent="Mozilla/5.0 (Windows NT 10.0; Win64; x64) AppleWebKit/537.36 (KHTML, like Gecko) Chrome/127.0.0.0 Safari/537.36" version="24.7.7">
  <diagram name="Page-1" id="b520641d-4fe3-3701-9064-5fc419738815">
    <mxGraphModel dx="2954" dy="1178" grid="1" gridSize="10" guides="1" tooltips="1" connect="1" arrows="1" fold="1" page="1" pageScale="1" pageWidth="1100" pageHeight="850" background="none" math="0" shadow="0">
      <root>
        <mxCell id="0" />
        <mxCell id="1" parent="0" />
        <object label="Person" username="string&#xa;" id="wBBQ4EXWzQ9XZufkmXkO-1">
          <mxCell style="swimlane;fontStyle=1;align=center;verticalAlign=middle;childLayout=stackLayout;horizontal=1;startSize=30;horizontalStack=0;resizeParent=1;resizeParentMax=0;resizeLast=0;collapsible=0;marginBottom=0;html=1;whiteSpace=wrap;" vertex="1" parent="1">
            <mxGeometry x="90" y="170" width="140" height="205" as="geometry" />
          </mxCell>
        </object>
        <mxCell id="wBBQ4EXWzQ9XZufkmXkO-2" value="email : string" style="text;html=1;strokeColor=none;fillColor=none;align=center;verticalAlign=middle;spacingLeft=4;spacingRight=4;overflow=hidden;rotatable=0;points=[[0,0.5],[1,0.5]];portConstraint=eastwest;whiteSpace=wrap;" vertex="1" parent="wBBQ4EXWzQ9XZufkmXkO-1">
          <mxGeometry y="30" width="140" height="25" as="geometry" />
        </mxCell>
        <mxCell id="wBBQ4EXWzQ9XZufkmXkO-13" value="password: string" style="text;html=1;strokeColor=none;fillColor=none;align=center;verticalAlign=middle;spacingLeft=4;spacingRight=4;overflow=hidden;rotatable=0;points=[[0,0.5],[1,0.5]];portConstraint=eastwest;whiteSpace=wrap;" vertex="1" parent="wBBQ4EXWzQ9XZufkmXkO-1">
          <mxGeometry y="55" width="140" height="25" as="geometry" />
        </mxCell>
        <mxCell id="wBBQ4EXWzQ9XZufkmXkO-14" value="username: string" style="text;html=1;strokeColor=none;fillColor=none;align=center;verticalAlign=middle;spacingLeft=4;spacingRight=4;overflow=hidden;rotatable=0;points=[[0,0.5],[1,0.5]];portConstraint=eastwest;whiteSpace=wrap;" vertex="1" parent="wBBQ4EXWzQ9XZufkmXkO-1">
          <mxGeometry y="80" width="140" height="25" as="geometry" />
        </mxCell>
        <mxCell id="wBBQ4EXWzQ9XZufkmXkO-18" value="about: string" style="text;html=1;strokeColor=none;fillColor=none;align=center;verticalAlign=middle;spacingLeft=4;spacingRight=4;overflow=hidden;rotatable=0;points=[[0,0.5],[1,0.5]];portConstraint=eastwest;whiteSpace=wrap;" vertex="1" parent="wBBQ4EXWzQ9XZufkmXkO-1">
          <mxGeometry y="105" width="140" height="25" as="geometry" />
        </mxCell>
        <mxCell id="wBBQ4EXWzQ9XZufkmXkO-15" value="avatar: string" style="text;html=1;strokeColor=none;fillColor=none;align=center;verticalAlign=middle;spacingLeft=4;spacingRight=4;overflow=hidden;rotatable=0;points=[[0,0.5],[1,0.5]];portConstraint=eastwest;whiteSpace=wrap;" vertex="1" parent="wBBQ4EXWzQ9XZufkmXkO-1">
          <mxGeometry y="130" width="140" height="25" as="geometry" />
        </mxCell>
        <mxCell id="wBBQ4EXWzQ9XZufkmXkO-17" value="dateOfBirth: Date" style="text;html=1;strokeColor=none;fillColor=none;align=center;verticalAlign=middle;spacingLeft=4;spacingRight=4;overflow=hidden;rotatable=0;points=[[0,0.5],[1,0.5]];portConstraint=eastwest;whiteSpace=wrap;" vertex="1" parent="wBBQ4EXWzQ9XZufkmXkO-1">
          <mxGeometry y="155" width="140" height="25" as="geometry" />
        </mxCell>
        <mxCell id="wBBQ4EXWzQ9XZufkmXkO-16" value="role: enum" style="text;html=1;strokeColor=none;fillColor=none;align=center;verticalAlign=middle;spacingLeft=4;spacingRight=4;overflow=hidden;rotatable=0;points=[[0,0.5],[1,0.5]];portConstraint=eastwest;whiteSpace=wrap;" vertex="1" parent="wBBQ4EXWzQ9XZufkmXkO-1">
          <mxGeometry y="180" width="140" height="25" as="geometry" />
        </mxCell>
        <mxCell id="wBBQ4EXWzQ9XZufkmXkO-28" style="edgeStyle=orthogonalEdgeStyle;rounded=0;orthogonalLoop=1;jettySize=auto;html=1;entryX=0.5;entryY=0;entryDx=0;entryDy=0;" edge="1" parent="1" source="wBBQ4EXWzQ9XZufkmXkO-19" target="wBBQ4EXWzQ9XZufkmXkO-1">
          <mxGeometry relative="1" as="geometry">
            <Array as="points">
              <mxPoint x="520" y="150" />
              <mxPoint x="160" y="150" />
            </Array>
          </mxGeometry>
        </mxCell>
        <mxCell id="wBBQ4EXWzQ9XZufkmXkO-46" style="edgeStyle=orthogonalEdgeStyle;rounded=0;orthogonalLoop=1;jettySize=auto;html=1;entryX=0.5;entryY=0;entryDx=0;entryDy=0;" edge="1" parent="1" source="wBBQ4EXWzQ9XZufkmXkO-19" target="wBBQ4EXWzQ9XZufkmXkO-37">
          <mxGeometry relative="1" as="geometry">
            <Array as="points">
              <mxPoint x="520" y="150" />
              <mxPoint x="380" y="150" />
            </Array>
          </mxGeometry>
        </mxCell>
        <object label="BaseClass" username="string&#xa;" id="wBBQ4EXWzQ9XZufkmXkO-19">
          <mxCell style="swimlane;fontStyle=1;align=center;verticalAlign=middle;childLayout=stackLayout;horizontal=1;startSize=30;horizontalStack=0;resizeParent=1;resizeParentMax=0;resizeLast=0;collapsible=0;marginBottom=0;html=1;whiteSpace=wrap;" vertex="1" parent="1">
            <mxGeometry x="450" y="30" width="140" height="105" as="geometry" />
          </mxCell>
        </object>
        <mxCell id="wBBQ4EXWzQ9XZufkmXkO-20" value="id: uuid" style="text;html=1;strokeColor=none;fillColor=none;align=center;verticalAlign=middle;spacingLeft=4;spacingRight=4;overflow=hidden;rotatable=0;points=[[0,0.5],[1,0.5]];portConstraint=eastwest;whiteSpace=wrap;" vertex="1" parent="wBBQ4EXWzQ9XZufkmXkO-19">
          <mxGeometry y="30" width="140" height="25" as="geometry" />
        </mxCell>
        <mxCell id="wBBQ4EXWzQ9XZufkmXkO-25" value="createdAt: Date" style="text;html=1;strokeColor=none;fillColor=none;align=center;verticalAlign=middle;spacingLeft=4;spacingRight=4;overflow=hidden;rotatable=0;points=[[0,0.5],[1,0.5]];portConstraint=eastwest;whiteSpace=wrap;" vertex="1" parent="wBBQ4EXWzQ9XZufkmXkO-19">
          <mxGeometry y="55" width="140" height="25" as="geometry" />
        </mxCell>
        <mxCell id="wBBQ4EXWzQ9XZufkmXkO-27" value="updatedAt: Date" style="text;html=1;strokeColor=none;fillColor=none;align=center;verticalAlign=middle;spacingLeft=4;spacingRight=4;overflow=hidden;rotatable=0;points=[[0,0.5],[1,0.5]];portConstraint=eastwest;whiteSpace=wrap;" vertex="1" parent="wBBQ4EXWzQ9XZufkmXkO-19">
          <mxGeometry y="80" width="140" height="25" as="geometry" />
        </mxCell>
        <object label="Dream" username="string&#xa;" id="wBBQ4EXWzQ9XZufkmXkO-29">
          <mxCell style="swimlane;fontStyle=1;align=center;verticalAlign=middle;childLayout=stackLayout;horizontal=1;startSize=30;horizontalStack=0;resizeParent=1;resizeParentMax=0;resizeLast=0;collapsible=0;marginBottom=0;html=1;whiteSpace=wrap;" vertex="1" parent="1">
            <mxGeometry x="310" y="425" width="140" height="205" as="geometry" />
          </mxCell>
        </object>
        <mxCell id="wBBQ4EXWzQ9XZufkmXkO-30" value="title: string" style="text;html=1;strokeColor=none;fillColor=none;align=center;verticalAlign=middle;spacingLeft=4;spacingRight=4;overflow=hidden;rotatable=0;points=[[0,0.5],[1,0.5]];portConstraint=eastwest;whiteSpace=wrap;" vertex="1" parent="wBBQ4EXWzQ9XZufkmXkO-29">
          <mxGeometry y="30" width="140" height="25" as="geometry" />
        </mxCell>
        <mxCell id="wBBQ4EXWzQ9XZufkmXkO-31" value="description: string" style="text;html=1;strokeColor=none;fillColor=none;align=center;verticalAlign=middle;spacingLeft=4;spacingRight=4;overflow=hidden;rotatable=0;points=[[0,0.5],[1,0.5]];portConstraint=eastwest;whiteSpace=wrap;" vertex="1" parent="wBBQ4EXWzQ9XZufkmXkO-29">
          <mxGeometry y="55" width="140" height="25" as="geometry" />
        </mxCell>
        <mxCell id="wBBQ4EXWzQ9XZufkmXkO-32" value="username: string" style="text;html=1;strokeColor=none;fillColor=none;align=center;verticalAlign=middle;spacingLeft=4;spacingRight=4;overflow=hidden;rotatable=0;points=[[0,0.5],[1,0.5]];portConstraint=eastwest;whiteSpace=wrap;" vertex="1" parent="wBBQ4EXWzQ9XZufkmXkO-29">
          <mxGeometry y="80" width="140" height="25" as="geometry" />
        </mxCell>
        <mxCell id="wBBQ4EXWzQ9XZufkmXkO-33" value="about: string" style="text;html=1;strokeColor=none;fillColor=none;align=center;verticalAlign=middle;spacingLeft=4;spacingRight=4;overflow=hidden;rotatable=0;points=[[0,0.5],[1,0.5]];portConstraint=eastwest;whiteSpace=wrap;" vertex="1" parent="wBBQ4EXWzQ9XZufkmXkO-29">
          <mxGeometry y="105" width="140" height="25" as="geometry" />
        </mxCell>
        <mxCell id="wBBQ4EXWzQ9XZufkmXkO-34" value="avatar: string" style="text;html=1;strokeColor=none;fillColor=none;align=center;verticalAlign=middle;spacingLeft=4;spacingRight=4;overflow=hidden;rotatable=0;points=[[0,0.5],[1,0.5]];portConstraint=eastwest;whiteSpace=wrap;" vertex="1" parent="wBBQ4EXWzQ9XZufkmXkO-29">
          <mxGeometry y="130" width="140" height="25" as="geometry" />
        </mxCell>
        <mxCell id="wBBQ4EXWzQ9XZufkmXkO-35" value="dateOfBirth: Date" style="text;html=1;strokeColor=none;fillColor=none;align=center;verticalAlign=middle;spacingLeft=4;spacingRight=4;overflow=hidden;rotatable=0;points=[[0,0.5],[1,0.5]];portConstraint=eastwest;whiteSpace=wrap;" vertex="1" parent="wBBQ4EXWzQ9XZufkmXkO-29">
          <mxGeometry y="155" width="140" height="25" as="geometry" />
        </mxCell>
        <mxCell id="wBBQ4EXWzQ9XZufkmXkO-36" value="role: enum" style="text;html=1;strokeColor=none;fillColor=none;align=center;verticalAlign=middle;spacingLeft=4;spacingRight=4;overflow=hidden;rotatable=0;points=[[0,0.5],[1,0.5]];portConstraint=eastwest;whiteSpace=wrap;" vertex="1" parent="wBBQ4EXWzQ9XZufkmXkO-29">
          <mxGeometry y="180" width="140" height="25" as="geometry" />
        </mxCell>
        <mxCell id="wBBQ4EXWzQ9XZufkmXkO-45" style="edgeStyle=orthogonalEdgeStyle;rounded=0;orthogonalLoop=1;jettySize=auto;html=1;entryX=0.5;entryY=0;entryDx=0;entryDy=0;" edge="1" parent="1" source="wBBQ4EXWzQ9XZufkmXkO-37" target="wBBQ4EXWzQ9XZufkmXkO-29">
          <mxGeometry relative="1" as="geometry" />
        </mxCell>
        <object label="DreamOrder" username="string&#xa;" id="wBBQ4EXWzQ9XZufkmXkO-37">
          <mxCell style="swimlane;fontStyle=1;align=center;verticalAlign=middle;childLayout=stackLayout;horizontal=1;startSize=30;horizontalStack=0;resizeParent=1;resizeParentMax=0;resizeLast=0;collapsible=0;marginBottom=0;html=1;whiteSpace=wrap;" vertex="1" parent="1">
            <mxGeometry x="310" y="170" width="140" height="205" as="geometry" />
          </mxCell>
        </object>
        <mxCell id="wBBQ4EXWzQ9XZufkmXkO-38" value="email : string" style="text;html=1;strokeColor=none;fillColor=none;align=center;verticalAlign=middle;spacingLeft=4;spacingRight=4;overflow=hidden;rotatable=0;points=[[0,0.5],[1,0.5]];portConstraint=eastwest;whiteSpace=wrap;" vertex="1" parent="wBBQ4EXWzQ9XZufkmXkO-37">
          <mxGeometry y="30" width="140" height="25" as="geometry" />
        </mxCell>
        <mxCell id="wBBQ4EXWzQ9XZufkmXkO-39" value="password: string" style="text;html=1;strokeColor=none;fillColor=none;align=center;verticalAlign=middle;spacingLeft=4;spacingRight=4;overflow=hidden;rotatable=0;points=[[0,0.5],[1,0.5]];portConstraint=eastwest;whiteSpace=wrap;" vertex="1" parent="wBBQ4EXWzQ9XZufkmXkO-37">
          <mxGeometry y="55" width="140" height="25" as="geometry" />
        </mxCell>
        <mxCell id="wBBQ4EXWzQ9XZufkmXkO-40" value="username: string" style="text;html=1;strokeColor=none;fillColor=none;align=center;verticalAlign=middle;spacingLeft=4;spacingRight=4;overflow=hidden;rotatable=0;points=[[0,0.5],[1,0.5]];portConstraint=eastwest;whiteSpace=wrap;" vertex="1" parent="wBBQ4EXWzQ9XZufkmXkO-37">
          <mxGeometry y="80" width="140" height="25" as="geometry" />
        </mxCell>
        <mxCell id="wBBQ4EXWzQ9XZufkmXkO-41" value="about: string" style="text;html=1;strokeColor=none;fillColor=none;align=center;verticalAlign=middle;spacingLeft=4;spacingRight=4;overflow=hidden;rotatable=0;points=[[0,0.5],[1,0.5]];portConstraint=eastwest;whiteSpace=wrap;" vertex="1" parent="wBBQ4EXWzQ9XZufkmXkO-37">
          <mxGeometry y="105" width="140" height="25" as="geometry" />
        </mxCell>
        <mxCell id="wBBQ4EXWzQ9XZufkmXkO-42" value="avatar: string" style="text;html=1;strokeColor=none;fillColor=none;align=center;verticalAlign=middle;spacingLeft=4;spacingRight=4;overflow=hidden;rotatable=0;points=[[0,0.5],[1,0.5]];portConstraint=eastwest;whiteSpace=wrap;" vertex="1" parent="wBBQ4EXWzQ9XZufkmXkO-37">
          <mxGeometry y="130" width="140" height="25" as="geometry" />
        </mxCell>
        <mxCell id="wBBQ4EXWzQ9XZufkmXkO-43" value="dateOfBirth: Date" style="text;html=1;strokeColor=none;fillColor=none;align=center;verticalAlign=middle;spacingLeft=4;spacingRight=4;overflow=hidden;rotatable=0;points=[[0,0.5],[1,0.5]];portConstraint=eastwest;whiteSpace=wrap;" vertex="1" parent="wBBQ4EXWzQ9XZufkmXkO-37">
          <mxGeometry y="155" width="140" height="25" as="geometry" />
        </mxCell>
        <mxCell id="wBBQ4EXWzQ9XZufkmXkO-44" value="role: enum" style="text;html=1;strokeColor=none;fillColor=none;align=center;verticalAlign=middle;spacingLeft=4;spacingRight=4;overflow=hidden;rotatable=0;points=[[0,0.5],[1,0.5]];portConstraint=eastwest;whiteSpace=wrap;" vertex="1" parent="wBBQ4EXWzQ9XZufkmXkO-37">
          <mxGeometry y="180" width="140" height="25" as="geometry" />
        </mxCell>
      </root>
    </mxGraphModel>
  </diagram>
</mxfile>
